<?xml version="1.0" encoding="UTF-8"?>
<svg version="1.1" xmlns="http://www.w3.org/2000/svg" width="395" height="356">
<path d="M0 0 C1.69162629 0.45483601 3.38341333 0.90907453 5.0753479 1.36276245 C9.64400837 2.58955113 14.21046941 3.82434744 18.77656937 5.06062698 C23.56715107 6.3562226 28.35969884 7.64450226 33.15209961 8.93334961 C40.12477902 10.80920292 47.09681385 12.6874205 54.06809711 14.5684557 C65.89239428 17.75872983 77.72086104 20.93316237 89.55216026 24.09736443 C92.36791234 24.85043897 95.18358202 25.60382079 97.9992218 26.35731506 C99.37203701 26.72469363 99.37203701 26.72469363 100.77258587 27.09949398 C101.67980294 27.34227864 102.58702002 27.5850633 103.52172852 27.83520508 C108.83637605 29.2574819 114.15106873 30.67958819 119.46603394 32.10067749 C123.613632 33.20981779 127.76072472 34.32083041 131.90748215 35.43310928 C133.40584249 35.83471165 134.90435931 36.23573086 136.40306473 36.63604355 C148.37534723 39.83438863 160.27272824 43.23919468 172.19140625 46.64453125 C172.19140625 121.88453125 172.19140625 197.12453125 172.19140625 274.64453125 C158.69276227 280.26896624 158.69276227 280.26896624 153.20800781 282.22827148 C151.97922913 282.66900497 150.75045044 283.10973846 149.48443604 283.56382751 C148.1836444 284.02695467 146.88284255 284.49005309 145.58203125 284.953125 C144.20250709 285.44696553 142.8230946 285.94111812 141.44378662 286.43556213 C137.84082782 287.72637415 134.23663851 289.01371148 130.63208008 290.30004883 C124.88071895 292.35305336 119.13114547 294.41105409 113.38182831 296.46977425 C111.40638202 297.17652471 109.4303256 297.88154496 107.4541626 298.58628845 C99.61855732 301.38757096 99.61855732 301.38757096 91.83093262 304.31790161 C91.10696163 304.59568734 90.38299065 304.87347307 89.63708115 305.15967655 C88.24289916 305.69662307 86.85084576 306.23914051 85.46133804 306.78806973 C82.0986431 308.08147085 79.85753425 308.64453125 76.19140625 308.64453125 C75.86140625 305.67453125 75.53140625 302.70453125 75.19140625 299.64453125 C74.72089844 300.21042969 74.25039063 300.77632813 73.765625 301.359375 C73.14300781 302.09285156 72.52039063 302.82632812 71.87890625 303.58203125 C70.95658203 304.67837891 70.95658203 304.67837891 70.015625 305.796875 C67.9040728 307.93555635 66.29278885 308.57876229 63.2902832 308.75805664 C62.59378662 308.75281982 61.89729004 308.74758301 61.1796875 308.7421875 C60.42236328 308.73896484 59.66503906 308.73574219 58.88476562 308.73242188 C58.09908203 308.72404297 57.31339844 308.71566406 56.50390625 308.70703125 C55.70662109 308.70251953 54.90933594 308.69800781 54.08789062 308.69335938 C52.12236368 308.68158975 50.1568754 308.66365473 48.19140625 308.64453125 C48.52217163 309.53615967 48.52217163 309.53615967 48.85961914 310.44580078 C49.38557943 311.86360677 49.91153971 313.28141276 50.4375 314.69921875 C51.17057479 316.6810197 51.17057479 316.6810197 52.19140625 318.64453125 C51.6138559 318.85227173 51.03630554 319.06001221 50.44125366 319.27404785 C44.30653735 321.48074465 38.17201646 323.6879841 32.03759766 325.89550781 C29.76290589 326.71400008 27.48816798 327.53236415 25.21337891 328.35058594 C23.00357438 329.14545155 20.79387787 329.94061754 18.58428955 330.73608398 C16.37770434 331.5299187 14.17063071 332.32239707 11.96307373 333.11352539 C6.58630666 335.04387667 1.22262651 337.00064969 -4.12011719 339.0234375 C-5.11602875 339.39690308 -6.11194031 339.77036865 -7.13803101 340.15515137 C-8.99989804 340.85501035 -10.85844455 341.56379706 -12.71279907 342.2833252 C-21.52113987 345.57803591 -27.53336619 344.76494304 -36.16796875 341.49609375 C-37.06286011 341.16757416 -37.95775146 340.83905457 -38.87976074 340.50057983 C-41.77676012 339.43419182 -44.66760111 338.35208522 -47.55859375 337.26953125 C-49.54357171 336.53544732 -51.52892514 335.80237788 -53.51464844 335.0703125 C-58.39287091 333.26925634 -63.26642878 331.45595296 -68.13867188 329.63879395 C-71.99442094 328.20293641 -75.85432064 326.77843015 -79.71484375 325.35546875 C-85.75018776 323.12944992 -91.78147064 320.8927176 -97.80859375 318.64453125 C-97.80859375 317.98453125 -97.80859375 317.32453125 -97.80859375 316.64453125 C-97.14859375 316.64453125 -96.48859375 316.64453125 -95.80859375 316.64453125 C-95.47859375 314.00453125 -95.14859375 311.36453125 -94.80859375 308.64453125 C-95.96617188 308.6909375 -97.12375 308.73734375 -98.31640625 308.78515625 C-99.85544281 308.82269373 -101.39450745 308.85909176 -102.93359375 308.89453125 C-103.69414063 308.92804688 -104.4546875 308.9615625 -105.23828125 308.99609375 C-110.60627555 309.08864538 -113.54219899 308.19129316 -117.80859375 304.64453125 C-120.18359375 301.89453125 -120.18359375 301.89453125 -121.80859375 299.64453125 C-122.13859375 302.61453125 -122.46859375 305.58453125 -122.80859375 308.64453125 C-130.55733077 307.15061851 -137.7504529 304.66232972 -145.15234375 301.953125 C-146.44704651 301.48380618 -147.74193192 301.01499099 -149.0369873 300.54664612 C-152.44199315 299.31378758 -155.84457419 298.0743713 -159.24664307 296.83343506 C-162.618787 295.60457841 -165.99303151 294.38152197 -169.3671875 293.15820312 C-173.33853438 291.7180819 -177.3095775 290.27715205 -181.27905273 288.83187866 C-187.61904948 286.52395025 -193.96258134 284.22714612 -200.31640625 281.95751953 C-201.48296753 281.54035172 -202.64952881 281.1231839 -203.85144043 280.69337463 C-206.04499545 279.90998061 -208.23937646 279.12889439 -210.43469238 278.35044861 C-211.39661499 278.00671707 -212.3585376 277.66298553 -213.34960938 277.30883789 C-214.61206482 276.86031212 -214.61206482 276.86031212 -215.90002441 276.40272522 C-217.80859375 275.64453125 -217.80859375 275.64453125 -218.80859375 274.64453125 C-218.90777246 272.49574217 -218.93491773 270.34362725 -218.93557739 268.19255066 C-218.93713738 267.50968044 -218.93869737 266.82681022 -218.94030464 266.12324697 C-218.94431905 263.81546027 -218.94112255 261.50773845 -218.93798828 259.19995117 C-218.93934277 257.55020611 -218.94112297 255.90046135 -218.94329834 254.25071716 C-218.94788518 249.73915685 -218.94607327 245.22761924 -218.94291925 240.71605849 C-218.9403806 235.94907684 -218.94273936 231.18209709 -218.94430542 226.41511536 C-218.94613171 218.35348161 -218.94371819 210.29185697 -218.93896484 202.23022461 C-218.93419917 194.05606485 -218.93407401 185.88192336 -218.93896484 177.70776367 C-218.96452181 134.01060341 -218.98809751 90.3292546 -217.80859375 46.64453125 C-207.81334539 43.46806106 -197.74338095 40.6870692 -187.609375 37.99609375 C-185.92279039 37.54621928 -184.23626871 37.0961088 -182.54980469 36.64578247 C-178.94979979 35.68495576 -175.34940631 34.72560479 -171.74868774 33.76745605 C-166.05664229 32.25275144 -160.36550518 30.73465496 -154.67456055 29.21582031 C-152.72462502 28.69543313 -150.7746891 28.1750474 -148.82475281 27.65466309 C-147.85055578 27.39467026 -146.87635876 27.13467743 -145.87264061 26.86680603 C-142.88417712 26.06937121 -139.89562823 25.2722571 -136.90705872 24.47521973 C-116.53570788 19.04171611 -96.17162056 13.58122169 -75.80880356 8.1158371 C-72.25769905 7.16282035 -68.70649139 6.21018829 -65.15528297 5.25755882 C-61.81797247 4.36226004 -58.48072233 3.4667364 -55.14349365 2.57113266 C-53.60891332 2.15932064 -52.07431721 1.74756742 -50.53970337 1.33588028 C-49.11135724 0.95267175 -47.68309768 0.56914033 -46.25493431 0.18525124 C-44.9195379 -0.17278761 -43.58361593 -0.52887309 -42.24712563 -0.88280678 C-39.37743751 -1.64568068 -36.5295254 -2.44211152 -33.69345093 -3.32263184 C-21.82338394 -6.95686816 -11.61072319 -3.15794162 0 0 Z M-100.24609375 55.89453125 C-102.65624655 58.84499538 -102.80322823 59.47820027 -102.93359375 63.51953125 C-102.06563464 66.90287691 -102.06563464 66.90287691 -98.80859375 68.64453125 C-95.25297342 68.78396734 -92.82434702 68.52135862 -90.06640625 66.140625 C-88.7782724 64.77232831 -87.49343702 63.40092289 -86.2109375 62.02734375 C-71.0670953 47.00662222 -48.97157852 38.52479405 -27.80859375 37.64453125 C-27.09574219 37.59296875 -26.38289063 37.54140625 -25.6484375 37.48828125 C-0.21129189 36.44112603 23.38846529 47.1818705 42.19140625 63.64453125 C43.08988281 64.56878906 43.98835937 65.49304688 44.9140625 66.4453125 C47.04914428 68.90089743 47.04914428 68.90089743 50.25390625 69.26953125 C53.34490086 68.85490293 53.34490086 68.85490293 55.69140625 66.51953125 C57.4569415 63.76564682 57.4569415 63.76564682 56.94140625 60.83203125 C47.89932362 44.36252361 25.3136318 33.25906771 8.07421875 28.01171875 C-30.66665533 17.10980163 -71.78480655 26.87187744 -100.24609375 55.89453125 Z M-59.80859375 58.64453125 C-60.73414063 59.08667969 -61.6596875 59.52882813 -62.61328125 59.984375 C-70.69094863 64.11474033 -83.33856967 71.22246865 -86.74609375 80.08203125 C-86.82995352 83.52028163 -85.9975932 85.01773192 -83.80859375 87.64453125 C-81.51300907 88.90394842 -81.51300907 88.90394842 -78.80859375 88.64453125 C-75.73355201 87.03712307 -73.47110396 85.28855942 -70.98828125 82.875 C-56.77320407 69.17339519 -38.12716624 64.06133435 -18.8359375 64.37109375 C-0.97421473 65.05847573 13.93356874 72.98194574 27.19140625 84.64453125 C30.53906016 87.84888862 30.53906016 87.84888862 34.81640625 88.58203125 C38.09072469 87.31773299 38.09072469 87.31773299 40.19140625 84.64453125 C40.32309687 81.22057514 40.00398818 78.81228145 38.01171875 75.94921875 C23.92425021 60.88053349 2.39689501 51.34481817 -18.0625 50.30078125 C-33.0613176 49.88200853 -46.16689183 52.12104709 -59.80859375 58.64453125 Z M-60.80859375 89.64453125 C-61.56527344 90.21429688 -62.32195312 90.7840625 -63.1015625 91.37109375 C-66.38058414 94.00591822 -68.47873546 95.81988553 -70.05859375 99.76953125 C-69.97970811 102.76382568 -69.97970811 102.76382568 -68.30859375 105.58203125 C-65.93442181 107.93152617 -65.93442181 107.93152617 -62.62109375 107.95703125 C-58.1820332 106.98100102 -55.60187881 103.83580318 -52.4140625 100.78515625 C-41.08286335 91.47556534 -27.77671196 90.56983536 -13.80859375 91.64453125 C-4.04614141 93.49749129 3.710372 98.29112047 10.81640625 105.08203125 C13.60149545 107.56199413 13.98104665 107.64108273 18.00390625 107.70703125 C21.45086925 106.92043909 21.45086925 106.92043909 23.19140625 103.64453125 C23.52030041 99.53335419 23.03670394 97.70257802 20.453125 94.46875 C8.51724766 82.85383743 -7.36906866 76.72002193 -23.953125 76.5390625 C-37.38768513 76.90657326 -50.16894782 81.42936208 -60.80859375 89.64453125 Z M-46.74609375 109.58203125 C-48.83957347 111.48867868 -49.77765692 112.57406402 -50.93359375 115.20703125 C-50.76031612 118.58594506 -50.09953096 120.13881868 -47.80859375 122.64453125 C-44.1718853 123.44460711 -41.89445947 123.29644698 -38.66796875 121.359375 C-37.15359829 120.28184217 -35.64061868 119.20235247 -34.12890625 118.12109375 C-29.13391727 114.9424644 -24.0475854 114.18922559 -18.24609375 115.14453125 C-13.91362876 116.27473951 -11.1449916 118.57649389 -7.7265625 121.3671875 C-4.69227536 123.38798566 -2.31172631 123.26273111 1.19140625 122.64453125 C3.33920702 121.74695569 3.33920702 121.74695569 4.19140625 119.64453125 C4.32316078 116.15303621 4.11035835 113.76210412 1.8359375 110.99609375 C-12.42149126 98.14156988 -31.8280066 97.78703958 -46.74609375 109.58203125 Z M-31.80859375 129.64453125 C-33.38315114 132.79364604 -33.15658493 135.16461941 -32.80859375 138.64453125 C-30.49656865 142.31657111 -28.9791842 144.22112619 -24.87109375 145.70703125 C-20.98912151 145.62780733 -19.00660602 144.84760637 -15.80859375 142.64453125 C-13.59364179 139.4292784 -12.80859375 137.48908844 -12.80859375 133.58203125 C-14.12498699 129.71512611 -15.49318311 128.04291341 -18.80859375 125.64453125 C-24.30113854 124.36848549 -27.85386071 125.56995781 -31.80859375 129.64453125 Z M-85.95849609 167.83178711 C-88.23665168 171.29531713 -89.82756828 174.82722336 -91.41015625 178.6484375 C-91.73269379 179.40873764 -92.05523132 180.16903778 -92.38754272 180.95237732 C-93.41038522 183.36751251 -94.42231015 185.78703634 -95.43359375 188.20703125 C-96.45431949 190.62956971 -97.47725892 193.05116008 -98.50106812 195.47239685 C-99.13555016 196.97505927 -99.7678316 198.47865329 -100.39761353 199.98329163 C-101.77202992 203.2574268 -103.15766646 206.49901063 -104.80859375 209.64453125 C-105.46859375 208.98453125 -106.12859375 208.32453125 -106.80859375 207.64453125 C-109.92965549 206.93262744 -113.12555875 206.71143664 -116.30859375 206.39453125 C-117.18902344 206.29140625 -118.06945312 206.18828125 -118.9765625 206.08203125 C-119.81832031 205.994375 -120.66007812 205.90671875 -121.52734375 205.81640625 C-122.30013672 205.73487305 -123.07292969 205.65333984 -123.86914062 205.56933594 C-126.05090589 205.43405607 -126.05090589 205.43405607 -127.80859375 207.64453125 C-127.97536657 211.22797101 -127.97536657 211.22797101 -127.80859375 214.64453125 C-121.90481724 217.51965645 -116.27571563 219.48258973 -109.80859375 220.64453125 C-112.98671155 224.33554415 -116.13643635 227.98731068 -119.62109375 231.39453125 C-123.04405365 234.91529 -124.09715098 237.63937864 -124.109375 242.53125 C-123.9568314 251.26868231 -122.64060545 259.898695 -121.40991211 268.53686523 C-120.99478924 271.46623671 -120.59922655 274.39781934 -120.20507812 277.33007812 C-119.94257544 279.212403 -119.67894307 281.09457076 -119.4140625 282.9765625 C-119.29830368 283.84336136 -119.18254486 284.71016022 -119.0632782 285.60322571 C-118.17515144 291.68934269 -117.04492872 298.71728002 -111.80859375 302.64453125 C-108.33529259 303.8022983 -105.62452122 303.77924667 -101.9584198 303.79170227 C-101.25771891 303.79537896 -100.55701803 303.79905565 -99.83508378 303.80284375 C-97.48143844 303.81387822 -95.12783726 303.817724 -92.77416992 303.8215332 C-91.08890136 303.82779797 -89.40363419 303.83444478 -87.71836853 303.84144592 C-83.13564964 303.85885275 -78.55294119 303.86940656 -73.97019744 303.87765145 C-71.10755911 303.88280171 -68.24492402 303.88887739 -65.38228798 303.89516258 C-56.42711439 303.91421278 -47.47194905 303.92844495 -38.5167591 303.93677455 C-28.17674996 303.94655091 -17.83695467 303.97288153 -7.4970209 304.01327544 C0.49372726 304.04342188 8.48441406 304.05824198 16.475218 304.06155556 C21.24858281 304.06390748 26.02171911 304.07288647 30.79502296 304.09801674 C35.28565755 304.12127714 39.77591284 304.12553894 44.26659203 304.11525536 C45.91373327 304.11475941 47.56089307 304.12109721 49.20797729 304.1348114 C51.45919995 304.15250552 53.70905764 304.14543785 55.96028137 304.13227844 C57.2192413 304.1346668 58.47820124 304.13705515 59.77531147 304.13951588 C63.8463673 303.54962883 66.01159592 302.20930854 69.19140625 299.64453125 C70.94636366 296.40553552 71.55443122 293.23947991 72.0769043 289.61401367 C72.22012619 288.63917526 72.36334808 287.66433685 72.51091003 286.65995789 C72.72980644 285.09577873 72.72980644 285.09577873 72.953125 283.5 C73.10803909 282.41624588 73.26295319 281.33249176 73.42256165 280.21589661 C73.74763458 277.92588847 74.06934972 275.63540151 74.38793945 273.34448242 C74.87591401 269.85343817 75.38168618 266.36528063 75.88867188 262.87695312 C76.20291407 260.64728893 76.51609976 258.41747552 76.828125 256.1875 C76.98012863 255.15078659 77.13213226 254.11407318 77.28874207 253.04594421 C78.22443596 246.16076581 78.88429517 239.96259354 75.62890625 233.58203125 C72.9714435 230.37944793 70.10363744 227.80043226 66.8984375 225.16015625 C65.19140625 223.64453125 65.19140625 223.64453125 64.19140625 221.64453125 C65.23941406 221.33 66.28742188 221.01546875 67.3671875 220.69140625 C68.74632115 220.25984062 70.12521516 219.82750862 71.50390625 219.39453125 C72.19419922 219.18957031 72.88449219 218.98460937 73.59570312 218.7734375 C76.67242264 217.79245447 78.88921255 216.94909509 81.18359375 214.63671875 C82.41591134 212.62430178 82.41591134 212.62430178 82.00390625 210.01953125 C81.33464074 207.4943276 81.33464074 207.4943276 79.19140625 205.64453125 C76.17541405 205.77437827 73.30271706 206.02065822 70.31640625 206.39453125 C69.50042969 206.4821875 68.68445313 206.56984375 67.84375 206.66015625 C63.83156206 207.13140834 60.7675555 207.67266411 57.19140625 209.64453125 C56.81886719 208.45214844 56.44632813 207.25976562 56.0625 206.03125 C54.04900541 199.99785183 51.56736304 194.17347586 49.05786133 188.33227539 C48.25216701 186.45297442 47.4569241 184.5694706 46.66210938 182.68554688 C46.14712891 181.48220703 45.63214844 180.27886719 45.1015625 179.0390625 C44.63886963 177.95471924 44.17617676 176.87037598 43.69946289 175.75317383 C41.33113294 170.87120115 38.89531383 166.52757138 34.19140625 163.64453125 C31.37463245 162.70560665 29.64845644 162.51502246 26.73295593 162.50408936 C25.36406219 162.49552414 25.36406219 162.49552414 23.96751404 162.48678589 C22.96849564 162.48566803 21.96947723 162.48455017 20.94018555 162.48339844 C19.88624603 162.47843353 18.83230652 162.47346863 17.74642944 162.46835327 C14.25282137 162.45372431 10.7592587 162.44692839 7.265625 162.44140625 C4.84047952 162.43565539 2.41533405 162.42989765 -0.0098114 162.4241333 C-5.09825859 162.41362121 -10.18668996 162.40777991 -15.27514648 162.40429688 C-21.79543451 162.39881184 -28.31551374 162.37478425 -34.83573627 162.34632492 C-39.84659943 162.32770157 -44.85741227 162.32249309 -49.86830711 162.320961 C-52.27206756 162.31793326 -54.67582709 162.30990067 -57.0795536 162.29677582 C-60.44292715 162.27972216 -63.80579021 162.28159419 -67.16918945 162.28808594 C-68.16213516 162.27887115 -69.15508087 162.26965637 -70.17811584 162.26016235 C-76.63846008 162.29922477 -81.23598839 163.02722811 -85.95849609 167.83178711 Z " fill="#FDFDFD" transform="translate(220.80859375,8.35546875)"/>
<path d="M0 0 C0.90562683 -0.01431061 1.81125366 -0.02862122 2.74432373 -0.04336548 C4.23118179 -0.05143219 4.23118179 -0.05143219 5.74807739 -0.05966187 C7.31676575 -0.07937546 7.31676575 -0.07937546 8.91714478 -0.0994873 C12.38308994 -0.1389585 15.84886199 -0.1622763 19.31497192 -0.18222046 C20.49749668 -0.19037151 21.68002144 -0.19852257 22.89838028 -0.20692062 C29.15458733 -0.24863984 35.41070662 -0.27724658 41.66702271 -0.29598999 C48.13637044 -0.31814668 54.60434745 -0.38697606 61.07320976 -0.46633339 C66.04201867 -0.51855539 71.01049782 -0.53536334 75.97955704 -0.54255295 C78.3646892 -0.55231024 80.74980541 -0.57561132 83.13467026 -0.61262894 C86.47046251 -0.66119735 89.8026668 -0.65952726 93.13870239 -0.64559937 C94.61948776 -0.68402954 94.61948776 -0.68402954 96.13018799 -0.72323608 C102.66196623 -0.62369226 102.66196623 -0.62369226 105.25812531 1.99303532 C106.57587586 4.05025766 107.60544209 6.05309043 108.57278442 8.29434204 C108.91307615 9.01899343 109.25336788 9.74364483 109.60397148 10.49025536 C110.56441092 12.56371306 111.44115617 14.660251 112.30715942 16.77481079 C112.79240082 17.93863029 112.79240082 17.93863029 113.28744507 19.1259613 C113.96295848 20.75057823 114.63502482 22.37663247 115.30374146 24.00405884 C116.32589005 26.48939331 117.3605888 28.96922437 118.39700317 31.44863892 C119.0552999 33.03622098 119.71287748 34.62410147 120.36965942 36.21231079 C120.83054962 37.31714058 120.83054962 37.31714058 121.30075073 38.44429016 C121.58484802 39.13883804 121.86894531 39.83338593 122.16165161 40.54898071 C122.41082336 41.15328415 122.65999512 41.75758759 122.91671753 42.38020325 C123.57278442 44.29434204 123.57278442 44.29434204 124.57278442 49.29434204 C75.07278442 49.29434204 25.57278442 49.29434204 -25.42721558 49.29434204 C-26.42721558 47.29434204 -26.42721558 47.29434204 -25.84634399 45.35891724 C-25.51563904 44.5699707 -25.18493408 43.78102417 -24.84420776 42.96817017 C-24.47342102 42.07384277 -24.10263428 41.17951538 -23.72061157 40.25808716 C-23.30925964 39.29036377 -22.89790771 38.32264038 -22.47409058 37.32559204 C-22.0580658 36.33434326 -21.64204102 35.34309448 -21.21340942 34.32180786 C-20.32943643 32.22197428 -19.44143766 30.12383168 -18.54977417 28.0272522 C-17.18507563 24.81285552 -15.83858794 21.59125534 -14.49362183 18.36856079 C-13.63403798 16.33294255 -12.77339575 14.29777085 -11.91159058 12.26309204 C-11.50833557 11.29536865 -11.10508057 10.32764526 -10.68960571 9.33059692 C-10.30621033 8.43626953 -9.92281494 7.54194214 -9.52780151 6.62051392 C-9.19391418 5.83156738 -8.86002686 5.04262085 -8.51602173 4.22976685 C-6.43708632 0.53432193 -3.92307719 0.04259615 0 0 Z " fill="#FDFDFD" transform="translate(148.42721557617188,179.70565795898438)"/>
<path d="M0 0 C1.18157684 -0.00960754 2.36315369 -0.01921509 3.58053589 -0.02911377 C4.85349518 -0.03336365 6.12645447 -0.03761353 7.43798828 -0.04199219 C8.74986115 -0.04769226 10.06173401 -0.05339233 11.4133606 -0.05926514 C14.18898911 -0.06975447 16.96458884 -0.07561076 19.74023438 -0.07910156 C23.28654963 -0.08458461 26.83248063 -0.10861681 30.37867546 -0.13707352 C33.77343879 -0.16024102 37.16815002 -0.1621519 40.56298828 -0.16699219 C41.83189911 -0.17933899 43.10080994 -0.19168579 44.40817261 -0.20440674 C45.59605377 -0.20140564 46.78393494 -0.19840454 48.0078125 -0.1953125 C49.04831757 -0.19895813 50.08882263 -0.20260376 51.16085815 -0.20635986 C54.68547366 0.22939973 57.0969822 1.34662805 60.13330078 3.16113281 C62.80336927 8.96987276 60.6246258 16.45030841 59.13330078 22.34863281 C58.94896484 23.21166016 58.76462891 24.0746875 58.57470703 24.96386719 C58.36716797 25.80626953 58.15962891 26.64867187 57.94580078 27.51660156 C57.76662109 28.26578857 57.58744141 29.01497559 57.40283203 29.78686523 C55.37417153 33.58085051 52.9103284 36.07258058 49.13330078 38.16113281 C45.24517094 39.0012107 41.47052043 38.97999981 37.50439453 38.92285156 C36.39653091 38.92622025 35.2886673 38.92958893 34.14723206 38.93305969 C31.8131952 38.93276163 29.4791184 38.91758682 27.14526367 38.88842773 C23.57821002 38.8487153 20.01486977 38.86774699 16.44775391 38.89355469 C14.17495307 38.88599614 11.90216045 38.87504325 9.62939453 38.86035156 C8.56675888 38.86733566 7.50412323 38.87431976 6.4092865 38.8815155 C-1.82894249 38.72477222 -1.82894249 38.72477222 -5.51416016 35.74243164 C-7.62251345 33.42906308 -8.73968394 32.11880531 -9.55419922 29.16113281 C-9.87710938 28.00484375 -9.87710938 28.00484375 -10.20654297 26.82519531 C-10.53332031 25.50648438 -10.53332031 25.50648438 -10.86669922 24.16113281 C-11.15673828 23.09636719 -11.44677734 22.03160156 -11.74560547 20.93457031 C-14.59197554 9.82989785 -14.59197554 9.82989785 -12.86669922 4.16113281 C-9.74997322 -0.29133291 -5.03435108 0.03308702 0 0 Z M-6.86669922 6.16113281 C-7.19669922 7.81113281 -7.52669922 9.46113281 -7.86669922 11.16113281 C12.92330078 11.16113281 33.71330078 11.16113281 55.13330078 11.16113281 C55.46330078 10.17113281 55.79330078 9.18113281 56.13330078 8.16113281 C55.63830078 7.17113281 55.63830078 7.17113281 55.13330078 6.16113281 C34.67330078 6.16113281 14.21330078 6.16113281 -6.86669922 6.16113281 Z M-6.86669922 16.16113281 C-6.53669922 18.14113281 -6.20669922 20.12113281 -5.86669922 22.16113281 C13.60330078 22.16113281 33.07330078 22.16113281 53.13330078 22.16113281 C53.46330078 20.18113281 53.79330078 18.20113281 54.13330078 16.16113281 C34.00330078 16.16113281 13.87330078 16.16113281 -6.86669922 16.16113281 Z M-3.86669922 28.16113281 C-2.36669922 32.16113281 -2.36669922 32.16113281 0.13330078 33.16113281 C1.62326588 33.26586985 3.11773829 33.30980511 4.61132812 33.32226562 C6.00319839 33.33667694 6.00319839 33.33667694 7.42318726 33.35137939 C8.42838409 33.35562927 9.43358093 33.35987915 10.46923828 33.36425781 C12.01558456 33.37280792 12.01558456 33.37280792 13.59317017 33.38153076 C15.77710949 33.39098817 17.96106313 33.39751768 20.14501953 33.40136719 C23.48772046 33.41107306 26.82980675 33.44208996 30.17236328 33.47363281 C32.29215129 33.48016269 34.4119437 33.48541322 36.53173828 33.48925781 C37.53288666 33.50160461 38.53403503 33.51395142 39.56552124 33.52667236 C40.96684799 33.52217072 40.96684799 33.52217072 42.39648438 33.51757812 C43.21651947 33.52122375 44.03655457 33.52486938 44.88143921 33.52862549 C47.68161039 33.07165139 49.08158332 32.09096352 51.13330078 30.16113281 C51.13330078 29.50113281 51.13330078 28.84113281 51.13330078 28.16113281 C32.98330078 28.16113281 14.83330078 28.16113281 -3.86669922 28.16113281 Z " fill="#EDEDED" transform="translate(173.86669921875,248.8388671875)"/>
<path d="M0 0 C1.19463867 -0.00953201 2.38927734 -0.01906403 3.62011719 -0.02888489 C4.91594727 -0.02797348 6.21177734 -0.02706207 7.546875 -0.02612305 C8.88444146 -0.03000849 10.22200669 -0.03434285 11.55957031 -0.03910828 C14.36397297 -0.04657468 17.16824974 -0.04627598 19.97265625 -0.04101562 C23.57102079 -0.03521641 27.16887137 -0.05216013 30.76715088 -0.0753603 C33.52949041 -0.09007252 36.29170538 -0.09097289 39.05407715 -0.08785057 C41.02728538 -0.08861545 43.00047427 -0.1025077 44.97363281 -0.11653137 C46.16827148 -0.11030258 47.36291016 -0.10407379 48.59375 -0.09765625 C50.17687988 -0.09860039 50.17687988 -0.09860039 51.79199219 -0.0995636 C53.03190918 0.08567619 53.03190918 0.08567619 54.296875 0.2746582 C56.58687966 3.70966519 56.59435564 5.16193839 56.609375 9.2121582 C56.62613281 10.25243164 56.64289063 11.29270508 56.66015625 12.36450195 C56.2411647 15.72093963 55.662599 16.8916828 53.296875 19.2746582 C50.70970154 19.76913452 50.70970154 19.76913452 47.57202148 19.76049805 C46.3974791 19.76665131 45.22293671 19.77280457 44.01280212 19.77914429 C42.74400711 19.76477325 41.4752121 19.75040222 40.16796875 19.7355957 C38.86739029 19.73467926 37.56681183 19.73376282 36.2268219 19.7328186 C33.47529718 19.72969164 30.72429394 19.71313404 27.97290039 19.6862793 C24.44300298 19.65226551 20.91367762 19.64465166 17.38363552 19.64616966 C14.02000302 19.64549573 10.65655892 19.62782437 7.29296875 19.6105957 C6.02214951 19.60837006 4.75133026 19.60614441 3.44200134 19.60385132 C1.684916 19.58471176 1.684916 19.58471176 -0.10766602 19.56518555 C-1.14230484 19.55756195 -2.17694366 19.54993835 -3.24293518 19.54208374 C-5.703125 19.2746582 -5.703125 19.2746582 -7.703125 17.2746582 C-7.90161571 14.72930679 -7.98164275 12.31749062 -7.953125 9.7746582 C-7.96085938 9.08500977 -7.96859375 8.39536133 -7.9765625 7.68481445 C-7.95058473 1.02151695 -6.42353176 0.02804166 0 0 Z " fill="#FEFEFE" transform="translate(173.703125,290.725341796875)"/>
<path d="M0 0 C4.66244792 3.49683594 6.03685288 6.84835844 6.91015625 12.4375 C7.1059278 18.02124509 5.10679356 21.69455118 1.5625 25.875 C-3.34656383 29.94593098 -7.01439968 30.44659734 -13.30859375 30.3125 C-17.15008077 29.86646377 -19.18067786 28.61303028 -22 26 C-26.07658731 20.60127626 -27.45928435 16.77444413 -27 10 C-25.13650675 4.62875476 -21.68471405 1.09291874 -17 -2 C-10.80747957 -4.00806002 -5.50631393 -3.47137183 0 0 Z " fill="#FBFBFB" transform="translate(271,255)"/>
<path d="M0 0 C3.59885613 2.42531609 5.44387076 5.15192478 6.796875 9.2109375 C7.36071629 14.90356588 7.10407406 19.36037888 3.796875 24.2109375 C-0.38204589 28.32299566 -3.51399589 30.36942929 -9.390625 30.5234375 C-14.96375256 30.4504908 -17.83152912 29.69037096 -22.203125 26.2109375 C-25.96856839 21.38344598 -26.80078151 17.66654221 -26.5234375 11.57421875 C-25.89228149 6.91751894 -24.19730814 4.15279521 -20.828125 0.9609375 C-13.74630832 -3.76027362 -7.46891129 -4.08184687 0 0 Z " fill="#FBFBFB" transform="translate(144.203125,254.7890625)"/>
</svg>
