<?xml version="1.0" standalone="no"?>
<!DOCTYPE svg PUBLIC "-//W3C//DTD SVG 20010904//EN"
 "http://www.w3.org/TR/2001/REC-SVG-20010904/DTD/svg10.dtd">
<svg version="1.0" xmlns="http://www.w3.org/2000/svg"
 width="147.000000pt" height="130.000000pt" viewBox="0 0 147.000000 130.000000"
 preserveAspectRatio="xMidYMid meet">

<g transform="translate(0.000000,130.000000) scale(0.100000,-0.100000)"
fill="#000000" stroke="none">
<path d="M370 1211 c-135 -37 -271 -76 -302 -86 l-58 -18 0 -422 0 -422 148
-53 c81 -29 153 -55 160 -58 8 -3 12 7 12 28 l0 33 25 -27 c17 -19 34 -26 60
-26 37 0 49 -21 20 -37 -10 -6 34 -26 143 -66 l159 -58 161 58 c89 32 162 61
162 65 0 5 -5 7 -12 5 -6 -1 -14 6 -16 15 -3 15 3 18 32 18 25 0 40 7 55 26
l21 27 0 -32 c0 -29 2 -32 23 -25 35 10 289 103 292 106 2 2 5 194 7 427 l3
425 -195 52 c-107 28 -245 65 -307 81 l-111 30 26 -40 c38 -58 38 -141 -2
-219 -30 -60 -124 -190 -142 -195 -15 -5 -111 128 -146 203 -39 84 -37 162 6
218 15 20 26 36 24 35 -2 0 -113 -31 -248 -68z m617 -485 c10 -13 31 -55 47
-93 l28 -70 44 7 c24 4 46 5 49 2 9 -9 5 -42 -4 -42 -5 0 -22 -5 -36 -10 l-27
-10 31 -36 c21 -23 30 -42 27 -57 -3 -12 -10 -62 -17 -112 -6 -50 -16 -98 -21
-107 -8 -17 -36 -18 -367 -18 -299 0 -361 2 -370 14 -11 13 -40 179 -41 233 0
12 11 35 25 51 30 36 31 42 7 42 -10 0 -27 6 -37 14 -16 11 -17 17 -7 29 9 11
22 12 53 7 l41 -8 20 47 c11 25 26 62 34 81 25 60 26 60 275 60 227 0 228 0
246 -24z"/>
<path d="M516 701 c-8 -12 -76 -172 -76 -177 0 -2 135 -4 299 -4 l300 0 -39
93 -39 92 -220 3 c-124 1 -222 -2 -225 -7z"/>
<path d="M595 420 c-11 -18 7 -102 26 -121 16 -16 35 -19 117 -19 53 0 103 4
111 9 20 13 43 111 30 128 -14 16 -274 19 -284 3z m275 -20 c0 -6 -50 -10
-130 -10 -80 0 -130 4 -130 10 0 6 50 10 130 10 80 0 130 -4 130 -10z m-12
-42 c-3 -9 -39 -14 -120 -16 -96 -2 -117 0 -121 13 -6 13 11 15 119 15 96 0
125 -3 122 -12z m-11 -43 c-6 -16 -209 -13 -215 3 -3 10 21 12 107 10 68 -2
110 -7 108 -13z"/>
<path d="M440 400 c-27 -27 -26 -75 2 -94 31 -22 64 -20 88 6 26 29 25 59 -3
86 -29 27 -61 28 -87 2z"/>
<path d="M952 404 c-18 -12 -22 -24 -20 -52 6 -69 92 -85 118 -21 11 27 11 33
-7 57 -24 32 -60 39 -91 16z"/>
<path d="M612 228 l3 -33 122 -3 122 -3 7 25 c3 14 3 30 -1 35 -4 7 -54 11
-131 11 l-125 0 3 -32z"/>
<path d="M691 1174 c-25 -32 -26 -43 -5 -72 31 -45 104 -19 104 37 0 58 -63
80 -99 35z"/>
</g>
</svg>
