<svg id="SvgjsSvg1001" width="288" height="288" xmlns="http://www.w3.org/2000/svg" version="1.1" xmlns:xlink="http://www.w3.org/1999/xlink" xmlns:svgjs="http://svgjs.com/svgjs"><defs id="SvgjsDefs1002"></defs><g id="SvgjsG1008"><svg xmlns="http://www.w3.org/2000/svg" fill="none" viewBox="0 0 34 40" width="288" height="288"><path stroke="#ffffff" stroke-linecap="round" stroke-linejoin="round" stroke-width="3" d="M17 5.99536C19.8611 5.99536 22.6049 7.00561 24.6279 8.80388C26.651 10.6021 27.7875 13.0411 27.7875 15.5842C27.7875 19.5179 28.6766 22.4634 29.8297 24.6295C31.3028 27.3971 32.0393 28.7809 31.9984 29.0969C31.9506 29.4659 31.8897 29.5674 31.5865 29.7827C31.3266 29.9675 30.0339 29.9675 27.4483 29.9675H6.55166C3.9661 29.9675 2.67334 29.9675 2.41346 29.7827C2.11031 29.5674 2.0494 29.4659 2.00162 29.0969C1.96065 28.7809 2.69721 27.3971 4.17036 24.6295C5.32336 22.4634 6.21251 19.5179 6.21251 15.5842C6.21251 13.0411 7.34905 10.6021 9.37208 8.80388C11.3951 7.00561 14.1389 5.99536 17 5.99536ZM17 5.99536V2M11.7141 35.9606C13.1249 37.2057 14.9781 37.9614 17.008 37.9614C19.0376 37.9614 20.8909 37.2057 22.3018 35.9606" class="colorStroke2068AC svgStroke"></path></svg></g></svg>