<svg width="40" height="50" viewBox="0 0 40 50" fill="none" xmlns="http://www.w3.org/2000/svg">
<path d="M0 47.5C0 48.163 0.263393 48.7989 0.732234 49.2678C1.20107 49.7366 1.83696 50 2.5 50H37.5C38.163 50 38.7989 49.7366 39.2678 49.2678C39.7366 48.7989 40 48.163 40 47.5V2.5C40 1.83696 39.7366 1.20107 39.2678 0.732233C38.7989 0.263392 38.163 0 37.5 0H2.5C1.83696 0 1.20107 0.263392 0.732234 0.732233C0.263393 1.20107 0 1.83696 0 2.5V47.5ZM20 13.75C20.9889 13.75 21.9556 14.0432 22.7779 14.5927C23.6001 15.1421 24.241 15.923 24.6194 16.8366C24.9978 17.7502 25.0969 18.7555 24.9039 19.7255C24.711 20.6954 24.2348 21.5863 23.5355 22.2855C22.8363 22.9848 21.9454 23.461 20.9755 23.6539C20.0055 23.8469 19.0002 23.7478 18.0866 23.3694C17.173 22.991 16.3921 22.3501 15.8427 21.5279C15.2932 20.7056 15 19.7389 15 18.75C15 17.4239 15.5268 16.1521 16.4645 15.2145C17.4021 14.2768 18.6739 13.75 20 13.75ZM10.5275 35.5375C11.1977 33.5567 12.472 31.8358 14.1712 30.6169C15.8703 29.398 17.9089 28.7425 20 28.7425C22.0911 28.7425 24.1297 29.398 25.8288 30.6169C27.528 31.8358 28.8023 33.5567 29.4725 35.5375C29.5874 35.9108 29.6125 36.3059 29.546 36.6908C29.4794 37.0757 29.3229 37.4394 29.0893 37.7524C28.8557 38.0654 28.5515 38.3189 28.2015 38.4923C27.8515 38.6656 27.4656 38.7539 27.075 38.75H12.95C12.5586 38.7541 12.1717 38.6662 11.8204 38.4935C11.4692 38.3207 11.1634 38.0679 10.9277 37.7554C10.692 37.4428 10.533 37.0793 10.4635 36.6941C10.394 36.3089 10.4159 35.9127 10.5275 35.5375Z" fill="black"/>
</svg>
