<svg width="50" height="48" viewBox="0 0 50 48" fill="none" xmlns="http://www.w3.org/2000/svg">
<path fill-rule="evenodd" clip-rule="evenodd" d="M31.25 15C38.8439 15 45 21.1561 45 28.75C45 31.6437 44.1061 34.3287 42.5794 36.5438L49.5971 43.5616L46.0616 47.0971L39.0438 40.0794C36.8287 41.6061 34.1437 42.5 31.25 42.5C23.6561 42.5 17.5 36.3439 17.5 28.75C17.5 21.1561 23.6561 15 31.25 15ZM31.25 20C26.4175 20 22.5 23.9175 22.5 28.75C22.5 33.5825 26.4175 37.5 31.25 37.5C36.0825 37.5 40 33.5825 40 28.75C40 23.9175 36.0825 20 31.25 20ZM15.0474 27.4999C15.016 27.9125 15 28.3294 15 28.75C15 30.0407 15.1505 31.2963 15.4349 32.5002L0 32.5V27.5L15.0474 27.4999ZM10 0V25H2.5V0H10ZM20 10L19.9997 17.0242C17.7813 19.1532 16.1658 21.9056 15.4349 24.9998L12.5 25V10H20ZM30 5L30 12.5474C27.2525 12.7564 24.6959 13.6486 22.4999 15.0546L22.5 5H30ZM40 7.5L40.0001 15.0546C37.8041 13.6486 35.2476 12.7564 32.5001 12.5474L32.5 7.5H40Z" fill="black"/>
</svg>
